<svg width="301" height="42" viewBox="0 0 301 42" fill="none" xmlns="http://www.w3.org/2000/svg">
<path opacity="0.5" d="M40.0652 2.25671L30.2601 36.9917C30.2102 37.1494 30.0108 37.1967 29.8945 37.0863L23.3301 30.8583L28.2492 13.4514C28.2991 13.2937 28.1495 13.1518 27.9833 13.1991L9.63617 17.8662L3.10498 11.6697C2.98865 11.5593 3.03851 11.3701 3.20469 11.3228L39.7993 2.00444C39.9655 1.97291 40.115 2.11481 40.0652 2.25671Z" fill="#00B37E"/>
<path opacity="0.5" d="M23.3297 30.858L20.8037 39.8452C20.7538 40.0029 20.5544 40.0502 20.4381 39.9398L0.0634003 20.6251C-0.0529313 20.5147 -0.00307518 20.3255 0.163113 20.2782L9.63583 17.8658L23.3297 30.858Z" fill="#00B37E"/>
<path d="M28.2484 13.4511L23.3292 30.858L9.63533 17.8659L27.9825 13.1988C28.1487 13.1515 28.2982 13.2934 28.2484 13.4511Z" fill="#00B37E"/>
<path d="M59.4013 11.3104H62.5745L67.2468 24.6653L71.9192 11.3104H75.0923L68.5211 29.5H65.9726L59.4013 11.3104ZM57.6898 11.3104H60.8505L61.4252 24.328V29.5H57.6898V11.3104ZM73.6432 11.3104H76.8163V29.5H73.0685V24.328L73.6432 11.3104ZM79.3024 22.8788V22.6164C79.3024 21.6253 79.444 20.7134 79.7272 19.8805C80.0104 19.0393 80.4226 18.3106 80.964 17.6943C81.5053 17.078 82.1716 16.5991 82.9628 16.2576C83.754 15.9078 84.6618 15.7329 85.6863 15.7329C86.7107 15.7329 87.6227 15.9078 88.4222 16.2576C89.2217 16.5991 89.8922 17.078 90.4335 17.6943C90.9832 18.3106 91.3997 19.0393 91.6828 19.8805C91.966 20.7134 92.1076 21.6253 92.1076 22.6164V22.8788C92.1076 23.8616 91.966 24.7735 91.6828 25.6147C91.3997 26.4476 90.9832 27.1763 90.4335 27.801C89.8922 28.4173 89.2259 28.8962 88.4347 29.2377C87.6435 29.5791 86.7357 29.7499 85.7112 29.7499C84.6868 29.7499 83.7749 29.5791 82.9753 29.2377C82.1841 28.8962 81.5137 28.4173 80.964 27.801C80.4226 27.1763 80.0104 26.4476 79.7272 25.6147C79.444 24.7735 79.3024 23.8616 79.3024 22.8788ZM82.9004 22.6164V22.8788C82.9004 23.4451 82.9503 23.974 83.0503 24.4654C83.1502 24.9568 83.3085 25.3899 83.525 25.7646C83.7499 26.1311 84.0414 26.4184 84.3995 26.6266C84.7576 26.8349 85.1949 26.939 85.7112 26.939C86.211 26.939 86.6399 26.8349 86.998 26.6266C87.3561 26.4184 87.6435 26.1311 87.86 25.7646C88.0766 25.3899 88.2348 24.9568 88.3347 24.4654C88.443 23.974 88.4971 23.4451 88.4971 22.8788V22.6164C88.4971 22.0668 88.443 21.5504 88.3347 21.0673C88.2348 20.576 88.0724 20.1429 87.8475 19.7681C87.631 19.385 87.3436 19.0851 86.9855 18.8686C86.6274 18.6521 86.1943 18.5438 85.6863 18.5438C85.1782 18.5438 84.7451 18.6521 84.387 18.8686C84.0372 19.0851 83.7499 19.385 83.525 19.7681C83.3085 20.1429 83.1502 20.576 83.0503 21.0673C82.9503 21.5504 82.9004 22.0668 82.9004 22.6164ZM97.8418 18.8686V29.5H94.2439V15.9828H97.6169L97.8418 18.8686ZM97.3171 22.2666H96.3426C96.3426 21.2672 96.4717 20.3677 96.7299 19.5682C96.9881 18.7603 97.3504 18.0732 97.8168 17.5069C98.2832 16.9322 98.8371 16.495 99.4784 16.1951C100.128 15.887 100.853 15.7329 101.652 15.7329C102.285 15.7329 102.864 15.8245 103.389 16.0077C103.913 16.191 104.363 16.4825 104.738 16.8822C105.121 17.282 105.412 17.8109 105.612 18.4688C105.821 19.1268 105.925 19.9305 105.925 20.8799V29.5H102.302V20.8675C102.302 20.2678 102.218 19.8014 102.052 19.4683C101.885 19.1351 101.64 18.9019 101.315 18.7687C100.998 18.6271 100.607 18.5563 100.14 18.5563C99.6574 18.5563 99.2368 18.6521 98.8787 18.8436C98.5289 19.0352 98.2374 19.3017 98.0042 19.6432C97.7793 19.9763 97.6086 20.3677 97.492 20.8175C97.3754 21.2672 97.3171 21.7503 97.3171 22.2666ZM114.882 29.7499C113.833 29.7499 112.891 29.5833 112.059 29.2501C111.226 28.9087 110.518 28.4381 109.935 27.8385C109.36 27.2388 108.919 26.5434 108.611 25.7521C108.302 24.9526 108.148 24.1031 108.148 23.2036V22.7039C108.148 21.6795 108.294 20.7425 108.586 19.893C108.877 19.0435 109.294 18.3064 109.835 17.6818C110.385 17.0571 111.051 16.5782 111.834 16.2451C112.617 15.9036 113.499 15.7329 114.482 15.7329C115.44 15.7329 116.29 15.8911 117.031 16.2076C117.772 16.5241 118.393 16.9739 118.892 17.5569C119.4 18.1398 119.783 18.8394 120.042 19.6556C120.3 20.4635 120.429 21.363 120.429 22.3541V23.8532H109.685V21.4546H116.893V21.1798C116.893 20.6801 116.802 20.2345 116.619 19.843C116.444 19.4433 116.177 19.1268 115.819 18.8936C115.461 18.6604 115.003 18.5438 114.445 18.5438C113.97 18.5438 113.562 18.6479 113.22 18.8561C112.879 19.0643 112.6 19.3558 112.383 19.7306C112.175 20.1054 112.017 20.5468 111.909 21.0548C111.809 21.5546 111.759 22.1042 111.759 22.7039V23.2036C111.759 23.745 111.834 24.2447 111.984 24.7028C112.142 25.1608 112.363 25.5564 112.646 25.8896C112.937 26.2227 113.287 26.4809 113.695 26.6641C114.112 26.8474 114.582 26.939 115.107 26.939C115.757 26.939 116.36 26.814 116.918 26.5642C117.485 26.306 117.972 25.9187 118.38 25.4024L120.129 27.3013C119.846 27.7094 119.459 28.1008 118.967 28.4756C118.484 28.8504 117.901 29.1585 117.218 29.4001C116.535 29.6333 115.757 29.7499 114.882 29.7499ZM126.313 27.9759L129.898 15.9828H133.759L128.324 31.5363C128.208 31.8778 128.049 32.2443 127.85 32.6357C127.658 33.0271 127.396 33.3978 127.063 33.7476C126.738 34.1057 126.325 34.3972 125.826 34.6221C125.334 34.8469 124.731 34.9594 124.014 34.9594C123.673 34.9594 123.394 34.9385 123.177 34.8969C122.961 34.8553 122.703 34.797 122.403 34.722V32.086C122.494 32.086 122.59 32.086 122.69 32.086C122.79 32.0943 122.886 32.0985 122.977 32.0985C123.452 32.0985 123.839 32.0444 124.139 31.9361C124.439 31.8278 124.681 31.6613 124.864 31.4364C125.047 31.2198 125.193 30.9367 125.301 30.5869L126.313 27.9759ZM124.814 15.9828L127.75 25.7771L128.262 29.5874L125.813 29.8498L120.954 15.9828H124.814ZM151.836 11.3104H155.571V23.3285C155.571 24.7277 155.271 25.9062 154.672 26.864C154.08 27.8218 153.26 28.5422 152.211 29.0253C151.17 29.5083 149.97 29.7499 148.613 29.7499C147.255 29.7499 146.047 29.5083 144.99 29.0253C143.94 28.5422 143.116 27.8218 142.516 26.864C141.925 25.9062 141.629 24.7277 141.629 23.3285V11.3104H145.377V23.3285C145.377 24.1447 145.506 24.811 145.764 25.3274C146.022 25.8438 146.393 26.2227 146.876 26.4642C147.368 26.7058 147.946 26.8265 148.613 26.8265C149.296 26.8265 149.874 26.7058 150.349 26.4642C150.832 26.2227 151.199 25.8438 151.449 25.3274C151.707 24.811 151.836 24.1447 151.836 23.3285V11.3104ZM161.955 18.8686V29.5H158.357V15.9828H161.73L161.955 18.8686ZM161.43 22.2666H160.456C160.456 21.2672 160.585 20.3677 160.843 19.5682C161.101 18.7603 161.464 18.0732 161.93 17.5069C162.396 16.9322 162.95 16.495 163.592 16.1951C164.241 15.887 164.966 15.7329 165.765 15.7329C166.398 15.7329 166.977 15.8245 167.502 16.0077C168.027 16.191 168.476 16.4825 168.851 16.8822C169.234 17.282 169.526 17.8109 169.726 18.4688C169.934 19.1268 170.038 19.9305 170.038 20.8799V29.5H166.415V20.8675C166.415 20.2678 166.332 19.8014 166.165 19.4683C165.999 19.1351 165.753 18.9019 165.428 18.7687C165.112 18.6271 164.72 18.5563 164.254 18.5563C163.771 18.5563 163.35 18.6521 162.992 18.8436C162.642 19.0352 162.351 19.3017 162.117 19.6432C161.893 19.9763 161.722 20.3677 161.605 20.8175C161.489 21.2672 161.43 21.7503 161.43 22.2666ZM180.757 26.5517V10.311H184.38V29.5H181.119L180.757 26.5517ZM172.212 22.9038V22.6414C172.212 21.6087 172.328 20.6717 172.561 19.8305C172.795 18.981 173.136 18.2523 173.586 17.6443C174.036 17.0363 174.589 16.5658 175.247 16.2326C175.905 15.8995 176.655 15.7329 177.496 15.7329C178.287 15.7329 178.979 15.8995 179.57 16.2326C180.17 16.5658 180.678 17.0405 181.094 17.6568C181.519 18.2648 181.86 18.9852 182.118 19.8181C182.377 20.6426 182.564 21.5462 182.681 22.529V23.1037C182.564 24.0448 182.377 24.9193 182.118 25.7272C181.86 26.535 181.519 27.243 181.094 27.8509C180.678 28.4506 180.17 28.917 179.57 29.2501C178.97 29.5833 178.271 29.7499 177.471 29.7499C176.63 29.7499 175.88 29.5791 175.222 29.2377C174.573 28.8962 174.023 28.4173 173.573 27.801C173.132 27.1847 172.795 26.4601 172.561 25.6272C172.328 24.7944 172.212 23.8866 172.212 22.9038ZM175.81 22.6414V22.9038C175.81 23.4618 175.851 23.9823 175.934 24.4654C176.026 24.9484 176.172 25.3774 176.372 25.7521C176.58 26.1186 176.846 26.4059 177.171 26.6142C177.504 26.814 177.908 26.914 178.383 26.914C178.999 26.914 179.507 26.7766 179.907 26.5017C180.307 26.2185 180.611 25.8313 180.819 25.3399C181.036 24.8485 181.161 24.2822 181.194 23.6409V22.0043C181.169 21.4796 181.094 21.009 180.969 20.5926C180.853 20.1679 180.678 19.8056 180.444 19.5057C180.22 19.2059 179.936 18.9727 179.595 18.8061C179.262 18.6396 178.866 18.5563 178.408 18.5563C177.942 18.5563 177.542 18.6645 177.209 18.8811C176.876 19.0893 176.605 19.3766 176.397 19.7431C176.197 20.1096 176.047 20.5426 175.947 21.0424C175.855 21.5337 175.81 22.0668 175.81 22.6414ZM193.412 29.7499C192.363 29.7499 191.421 29.5833 190.589 29.2501C189.756 28.9087 189.048 28.4381 188.465 27.8385C187.89 27.2388 187.449 26.5434 187.141 25.7521C186.832 24.9526 186.678 24.1031 186.678 23.2036V22.7039C186.678 21.6795 186.824 20.7425 187.116 19.893C187.407 19.0435 187.824 18.3064 188.365 17.6818C188.915 17.0571 189.581 16.5782 190.364 16.2451C191.147 15.9036 192.029 15.7329 193.012 15.7329C193.97 15.7329 194.819 15.8911 195.561 16.2076C196.302 16.5241 196.922 16.9739 197.422 17.5569C197.93 18.1398 198.313 18.8394 198.572 19.6556C198.83 20.4635 198.959 21.363 198.959 22.3541V23.8532H188.215V21.4546H195.423V21.1798C195.423 20.6801 195.332 20.2345 195.148 19.843C194.974 19.4433 194.707 19.1268 194.349 18.8936C193.991 18.6604 193.533 18.5438 192.975 18.5438C192.5 18.5438 192.092 18.6479 191.75 18.8561C191.409 19.0643 191.13 19.3558 190.913 19.7306C190.705 20.1054 190.547 20.5468 190.439 21.0548C190.339 21.5546 190.289 22.1042 190.289 22.7039V23.2036C190.289 23.745 190.364 24.2447 190.514 24.7028C190.672 25.1608 190.893 25.5564 191.176 25.8896C191.467 26.2227 191.817 26.4809 192.225 26.6641C192.642 26.8474 193.112 26.939 193.637 26.939C194.286 26.939 194.89 26.814 195.448 26.5642C196.015 26.306 196.502 25.9187 196.91 25.4024L198.659 27.3013C198.376 27.7094 197.989 28.1008 197.497 28.4756C197.014 28.8504 196.431 29.1585 195.748 29.4001C195.065 29.6333 194.286 29.7499 193.412 29.7499ZM204.606 18.9311V29.5H201.008V15.9828H204.393L204.606 18.9311ZM208.678 15.8953L208.616 19.2309C208.441 19.2059 208.228 19.1851 207.979 19.1684C207.737 19.1434 207.516 19.1309 207.316 19.1309C206.808 19.1309 206.367 19.1976 205.992 19.3308C205.626 19.4558 205.318 19.6432 205.068 19.893C204.826 20.1429 204.643 20.4469 204.518 20.805C204.401 21.1631 204.335 21.5712 204.318 22.0293L203.594 21.8044C203.594 20.9299 203.681 20.1262 203.856 19.3933C204.031 18.6521 204.285 18.0066 204.618 17.4569C204.96 16.9072 205.376 16.4825 205.867 16.1826C206.359 15.8828 206.921 15.7329 207.554 15.7329C207.754 15.7329 207.958 15.7496 208.166 15.7829C208.374 15.8079 208.545 15.8453 208.678 15.8953ZM227.517 23.466H231.253C231.178 24.6903 230.841 25.7771 230.241 26.7266C229.65 27.676 228.821 28.4173 227.755 28.9503C226.697 29.4833 225.423 29.7499 223.932 29.7499C222.766 29.7499 221.721 29.55 220.796 29.1502C219.872 28.7421 219.081 28.1591 218.423 27.4012C217.773 26.6433 217.277 25.7272 216.936 24.6528C216.595 23.5784 216.424 22.3749 216.424 21.0424V19.7806C216.424 18.448 216.599 17.2445 216.948 16.1701C217.307 15.0874 217.815 14.1671 218.473 13.4092C219.139 12.6513 219.934 12.0683 220.859 11.6602C221.783 11.2521 222.816 11.0481 223.957 11.0481C225.473 11.0481 226.751 11.3229 227.792 11.8726C228.842 12.4223 229.654 13.1802 230.228 14.1463C230.811 15.1124 231.161 16.2118 231.278 17.4444H227.53C227.488 16.7115 227.343 16.091 227.093 15.583C226.843 15.0666 226.464 14.6793 225.956 14.4211C225.456 14.1546 224.79 14.0214 223.957 14.0214C223.332 14.0214 222.787 14.138 222.32 14.3712C221.854 14.6044 221.463 14.9583 221.146 15.4331C220.83 15.9078 220.592 16.5075 220.434 17.232C220.284 17.9483 220.209 18.7895 220.209 19.7556V21.0424C220.209 21.9835 220.28 22.8122 220.421 23.5284C220.563 24.2364 220.78 24.836 221.071 25.3274C221.371 25.8104 221.754 26.1769 222.22 26.4268C222.695 26.6683 223.266 26.7891 223.932 26.7891C224.715 26.7891 225.36 26.6641 225.868 26.4143C226.376 26.1644 226.764 25.7938 227.03 25.3024C227.305 24.811 227.467 24.1989 227.517 23.466ZM232.914 22.8788V22.6164C232.914 21.6253 233.056 20.7134 233.339 19.8805C233.622 19.0393 234.035 18.3106 234.576 17.6943C235.117 17.078 235.783 16.5991 236.575 16.2576C237.366 15.9078 238.274 15.7329 239.298 15.7329C240.323 15.7329 241.235 15.9078 242.034 16.2576C242.834 16.5991 243.504 17.078 244.045 17.6943C244.595 18.3106 245.012 19.0393 245.295 19.8805C245.578 20.7134 245.719 21.6253 245.719 22.6164V22.8788C245.719 23.8616 245.578 24.7735 245.295 25.6147C245.012 26.4476 244.595 27.1763 244.045 27.801C243.504 28.4173 242.838 28.8962 242.047 29.2377C241.255 29.5791 240.348 29.7499 239.323 29.7499C238.299 29.7499 237.387 29.5791 236.587 29.2377C235.796 28.8962 235.126 28.4173 234.576 27.801C234.035 27.1763 233.622 26.4476 233.339 25.6147C233.056 24.7735 232.914 23.8616 232.914 22.8788ZM236.512 22.6164V22.8788C236.512 23.4451 236.562 23.974 236.662 24.4654C236.762 24.9568 236.92 25.3899 237.137 25.7646C237.362 26.1311 237.653 26.4184 238.011 26.6266C238.37 26.8349 238.807 26.939 239.323 26.939C239.823 26.939 240.252 26.8349 240.61 26.6266C240.968 26.4184 241.255 26.1311 241.472 25.7646C241.688 25.3899 241.847 24.9568 241.947 24.4654C242.055 23.974 242.109 23.4451 242.109 22.8788V22.6164C242.109 22.0668 242.055 21.5504 241.947 21.0673C241.847 20.576 241.684 20.1429 241.459 19.7681C241.243 19.385 240.956 19.0851 240.597 18.8686C240.239 18.6521 239.806 18.5438 239.298 18.5438C238.79 18.5438 238.357 18.6521 237.999 18.8686C237.649 19.0851 237.362 19.385 237.137 19.7681C236.92 20.1429 236.762 20.576 236.662 21.0673C236.562 21.5504 236.512 22.0668 236.512 22.6164ZM251.454 18.8686V29.5H247.856V15.9828H251.229L251.454 18.8686ZM250.929 22.2666H249.955C249.955 21.2672 250.084 20.3677 250.342 19.5682C250.6 18.7603 250.962 18.0732 251.429 17.5069C251.895 16.9322 252.449 16.495 253.09 16.1951C253.74 15.887 254.464 15.7329 255.264 15.7329C255.897 15.7329 256.476 15.8245 257.001 16.0077C257.525 16.191 257.975 16.4825 258.35 16.8822C258.733 17.282 259.024 17.8109 259.224 18.4688C259.432 19.1268 259.537 19.9305 259.537 20.8799V29.5H255.914V20.8675C255.914 20.2678 255.83 19.8014 255.664 19.4683C255.497 19.1351 255.252 18.9019 254.927 18.7687C254.61 18.6271 254.219 18.5563 253.752 18.5563C253.269 18.5563 252.849 18.6521 252.491 18.8436C252.141 19.0352 251.849 19.3017 251.616 19.6432C251.391 19.9763 251.22 20.3677 251.104 20.8175C250.987 21.2672 250.929 21.7503 250.929 22.2666ZM268.894 15.9828V18.5313H261.023V15.9828H268.894ZM262.972 12.6472H266.57V25.4273C266.57 25.8188 266.62 26.1186 266.72 26.3268C266.828 26.535 266.986 26.6808 267.195 26.7641C267.403 26.839 267.665 26.8765 267.982 26.8765C268.207 26.8765 268.406 26.8682 268.581 26.8515C268.765 26.8265 268.919 26.8015 269.044 26.7766L269.056 29.425C268.748 29.525 268.415 29.6041 268.057 29.6624C267.699 29.7207 267.303 29.7499 266.87 29.7499C266.079 29.7499 265.387 29.6208 264.796 29.3626C264.213 29.0961 263.763 28.6713 263.447 28.0883C263.13 27.5053 262.972 26.7391 262.972 25.7896V12.6472ZM274.54 18.9311V29.5H270.943V15.9828H274.328L274.54 18.9311ZM278.613 15.8953L278.551 19.2309C278.376 19.2059 278.163 19.1851 277.914 19.1684C277.672 19.1434 277.451 19.1309 277.251 19.1309C276.743 19.1309 276.302 19.1976 275.927 19.3308C275.561 19.4558 275.253 19.6432 275.003 19.893C274.761 20.1429 274.578 20.4469 274.453 20.805C274.336 21.1631 274.27 21.5712 274.253 22.0293L273.529 21.8044C273.529 20.9299 273.616 20.1262 273.791 19.3933C273.966 18.6521 274.22 18.0066 274.553 17.4569C274.894 16.9072 275.311 16.4825 275.802 16.1826C276.294 15.8828 276.856 15.7329 277.489 15.7329C277.689 15.7329 277.893 15.7496 278.101 15.7829C278.309 15.8079 278.48 15.8453 278.613 15.8953ZM279.363 22.8788V22.6164C279.363 21.6253 279.504 20.7134 279.787 19.8805C280.071 19.0393 280.483 18.3106 281.024 17.6943C281.566 17.078 282.232 16.5991 283.023 16.2576C283.814 15.9078 284.722 15.7329 285.747 15.7329C286.771 15.7329 287.683 15.9078 288.482 16.2576C289.282 16.5991 289.952 17.078 290.494 17.6943C291.043 18.3106 291.46 19.0393 291.743 19.8805C292.026 20.7134 292.168 21.6253 292.168 22.6164V22.8788C292.168 23.8616 292.026 24.7735 291.743 25.6147C291.46 26.4476 291.043 27.1763 290.494 27.801C289.952 28.4173 289.286 28.8962 288.495 29.2377C287.704 29.5791 286.796 29.7499 285.771 29.7499C284.747 29.7499 283.835 29.5791 283.036 29.2377C282.244 28.8962 281.574 28.4173 281.024 27.801C280.483 27.1763 280.071 26.4476 279.787 25.6147C279.504 24.7735 279.363 23.8616 279.363 22.8788ZM282.961 22.6164V22.8788C282.961 23.4451 283.011 23.974 283.111 24.4654C283.21 24.9568 283.369 25.3899 283.585 25.7646C283.81 26.1311 284.102 26.4184 284.46 26.6266C284.818 26.8349 285.255 26.939 285.771 26.939C286.271 26.939 286.7 26.8349 287.058 26.6266C287.416 26.4184 287.704 26.1311 287.92 25.7646C288.137 25.3899 288.295 24.9568 288.395 24.4654C288.503 23.974 288.557 23.4451 288.557 22.8788V22.6164C288.557 22.0668 288.503 21.5504 288.395 21.0673C288.295 20.576 288.133 20.1429 287.908 19.7681C287.691 19.385 287.404 19.0851 287.046 18.8686C286.688 18.6521 286.255 18.5438 285.747 18.5438C285.238 18.5438 284.805 18.6521 284.447 18.8686C284.097 19.0851 283.81 19.385 283.585 19.7681C283.369 20.1429 283.21 20.576 283.111 21.0673C283.011 21.5504 282.961 22.0668 282.961 22.6164ZM298.177 10.311V29.5H294.566V10.311H298.177Z" fill="#E1E1E6"/>
</svg>
