<svg width="242" height="25" viewBox="0 0 242 25" fill="none" xmlns="http://www.w3.org/2000/svg">
<path d="M2.40134 1.31043H5.57452L10.2468 14.6653L14.9192 1.31043H18.0923L11.5211 19.5H8.97257L2.40134 1.31043ZM0.689819 1.31043H3.85051L4.42518 14.328V19.5H0.689819V1.31043ZM16.6432 1.31043H19.8163V19.5H16.0685V14.328L16.6432 1.31043ZM22.3024 12.8788V12.6164C22.3024 11.6253 22.444 10.7134 22.7272 9.88052C23.0104 9.03933 23.4226 8.31058 23.964 7.69427C24.5053 7.07796 25.1716 6.59907 25.9628 6.2576C26.754 5.9078 27.6618 5.7329 28.6863 5.7329C29.7107 5.7329 30.6227 5.9078 31.4222 6.2576C32.2217 6.59907 32.8922 7.07796 33.4335 7.69427C33.9832 8.31058 34.3997 9.03933 34.6828 9.88052C34.966 10.7134 35.1076 11.6253 35.1076 12.6164V12.8788C35.1076 13.8616 34.966 14.7735 34.6828 15.6147C34.3997 16.4476 33.9832 17.1763 33.4335 17.801C32.8922 18.4173 32.2259 18.8962 31.4347 19.2377C30.6435 19.5791 29.7357 19.7499 28.7112 19.7499C27.6868 19.7499 26.7749 19.5791 25.9753 19.2377C25.1841 18.8962 24.5137 18.4173 23.964 17.801C23.4226 17.1763 23.0104 16.4476 22.7272 15.6147C22.444 14.7735 22.3024 13.8616 22.3024 12.8788ZM25.9004 12.6164V12.8788C25.9004 13.4451 25.9503 13.974 26.0503 14.4654C26.1502 14.9568 26.3085 15.3899 26.525 15.7646C26.7499 16.1311 27.0414 16.4184 27.3995 16.6266C27.7576 16.8349 28.1949 16.939 28.7112 16.939C29.211 16.939 29.6399 16.8349 29.998 16.6266C30.3561 16.4184 30.6435 16.1311 30.86 15.7646C31.0766 15.3899 31.2348 14.9568 31.3347 14.4654C31.443 13.974 31.4971 13.4451 31.4971 12.8788V12.6164C31.4971 12.0668 31.443 11.5504 31.3347 11.0673C31.2348 10.576 31.0724 10.1429 30.8475 9.76808C30.631 9.38497 30.3436 9.08514 29.9855 8.8686C29.6274 8.65206 29.1943 8.54378 28.6863 8.54378C28.1782 8.54378 27.7451 8.65206 27.387 8.8686C27.0372 9.08514 26.7499 9.38497 26.525 9.76808C26.3085 10.1429 26.1502 10.576 26.0503 11.0673C25.9503 11.5504 25.9004 12.0668 25.9004 12.6164ZM40.8418 8.8686V19.5H37.2439V5.98275H40.6169L40.8418 8.8686ZM40.3171 12.2666H39.3426C39.3426 11.2672 39.4717 10.3677 39.7299 9.5682C39.9881 8.76033 40.3504 8.07322 40.8168 7.50688C41.2832 6.93221 41.8371 6.49496 42.4784 6.19513C43.128 5.88697 43.8526 5.7329 44.6521 5.7329C45.2851 5.7329 45.8639 5.82451 46.3886 6.00774C46.9133 6.19097 47.363 6.48247 47.7378 6.88224C48.1209 7.28201 48.4124 7.81087 48.6123 8.46883C48.8205 9.12678 48.9247 9.93049 48.9247 10.8799V19.5H45.3017V10.8675C45.3017 10.2678 45.2184 9.8014 45.0519 9.46825C44.8853 9.13511 44.6396 8.90191 44.3148 8.76866C43.9983 8.62707 43.6069 8.55628 43.1405 8.55628C42.6574 8.55628 42.2368 8.65206 41.8787 8.84361C41.5289 9.03517 41.2374 9.30168 41.0042 9.64315C40.7793 9.9763 40.6086 10.3677 40.492 10.8175C40.3754 11.2672 40.3171 11.7503 40.3171 12.2666ZM57.882 19.7499C56.8326 19.7499 55.8915 19.5833 55.0586 19.2501C54.2258 18.9087 53.5179 18.4381 52.9349 17.8385C52.3602 17.2388 51.9188 16.5434 51.6106 15.7521C51.3025 14.9526 51.1484 14.1031 51.1484 13.2036V12.7039C51.1484 11.6795 51.2941 10.7425 51.5856 9.89301C51.8771 9.0435 52.2936 8.30642 52.8349 7.68178C53.3846 7.05714 54.0509 6.57824 54.8338 6.2451C55.6166 5.90363 56.4995 5.7329 57.4822 5.7329C58.44 5.7329 59.2895 5.89114 60.0308 6.20762C60.772 6.52411 61.3925 6.97385 61.8922 7.55685C62.4003 8.13985 62.7834 8.83945 63.0416 9.65565C63.2997 10.4635 63.4288 11.363 63.4288 12.3541V13.8532H52.685V11.4546H59.8934V11.1798C59.8934 10.6801 59.8017 10.2345 59.6185 9.84304C59.4436 9.44327 59.1771 9.12678 58.819 8.89358C58.4609 8.66038 58.0028 8.54378 57.4448 8.54378C56.97 8.54378 56.5619 8.64789 56.2205 8.8561C55.879 9.06432 55.6 9.35582 55.3834 9.7306C55.1752 10.1054 55.017 10.5468 54.9087 11.0548C54.8088 11.5546 54.7588 12.1042 54.7588 12.7039V13.2036C54.7588 13.745 54.8338 14.2447 54.9837 14.7028C55.1419 15.1608 55.3626 15.5564 55.6458 15.8896C55.9373 16.2227 56.2871 16.4809 56.6952 16.6641C57.1116 16.8474 57.5822 16.939 58.1069 16.939C58.7565 16.939 59.3603 16.814 59.9183 16.5642C60.4847 16.306 60.9719 15.9187 61.38 15.4024L63.129 17.3013C62.8458 17.7094 62.4586 18.1008 61.9672 18.4756C61.4841 18.8504 60.9011 19.1585 60.2182 19.4001C59.5352 19.6333 58.7565 19.7499 57.882 19.7499ZM69.313 17.9759L72.8984 5.98275H76.7587L71.3243 21.5363C71.2077 21.8778 71.0495 22.2443 70.8496 22.6357C70.658 23.0271 70.3957 23.3978 70.0625 23.7476C69.7377 24.1057 69.3255 24.3972 68.8257 24.6221C68.3344 24.8469 67.7305 24.9594 67.0143 24.9594C66.6728 24.9594 66.3938 24.9385 66.1773 24.8969C65.9607 24.8553 65.7025 24.797 65.4027 24.722V22.086C65.4943 22.086 65.5901 22.086 65.69 22.086C65.79 22.0943 65.8858 22.0985 65.9774 22.0985C66.4521 22.0985 66.8394 22.0444 67.1392 21.9361C67.439 21.8278 67.6806 21.6613 67.8638 21.4364C68.047 21.2198 68.1928 20.9367 68.301 20.5869L69.313 17.9759ZM67.8138 5.98275L70.7496 15.7771L71.2618 19.5874L68.8132 19.8498L63.9535 5.98275H67.8138ZM94.8358 1.31043H98.5712V13.3285C98.5712 14.7277 98.2713 15.9062 97.6717 16.864C97.0804 17.8218 96.26 18.5422 95.2106 19.0253C94.1695 19.5083 92.9702 19.7499 91.6127 19.7499C90.2551 19.7499 89.0475 19.5083 87.9897 19.0253C86.9403 18.5422 86.1158 17.8218 85.5162 16.864C84.9248 15.9062 84.6292 14.7277 84.6292 13.3285V1.31043H88.377V13.3285C88.377 14.1447 88.5061 14.811 88.7643 15.3274C89.0225 15.8438 89.3931 16.2227 89.8762 16.4642C90.3675 16.7058 90.9464 16.8265 91.6127 16.8265C92.2956 16.8265 92.8744 16.7058 93.3492 16.4642C93.8322 16.2227 94.1987 15.8438 94.4485 15.3274C94.7067 14.811 94.8358 14.1447 94.8358 13.3285V1.31043ZM104.955 8.8686V19.5H101.357V5.98275H104.73L104.955 8.8686ZM104.43 12.2666H103.456C103.456 11.2672 103.585 10.3677 103.843 9.5682C104.101 8.76033 104.464 8.07322 104.93 7.50688C105.396 6.93221 105.95 6.49496 106.592 6.19513C107.241 5.88697 107.966 5.7329 108.765 5.7329C109.398 5.7329 109.977 5.82451 110.502 6.00774C111.027 6.19097 111.476 6.48247 111.851 6.88224C112.234 7.28201 112.526 7.81087 112.726 8.46883C112.934 9.12678 113.038 9.93049 113.038 10.8799V19.5H109.415V10.8675C109.415 10.2678 109.332 9.8014 109.165 9.46825C108.999 9.13511 108.753 8.90191 108.428 8.76866C108.112 8.62707 107.72 8.55628 107.254 8.55628C106.771 8.55628 106.35 8.65206 105.992 8.84361C105.642 9.03517 105.351 9.30168 105.117 9.64315C104.893 9.9763 104.722 10.3677 104.605 10.8175C104.489 11.2672 104.43 11.7503 104.43 12.2666ZM123.757 16.5517V0.311006H127.38V19.5H124.119L123.757 16.5517ZM115.212 12.9038V12.6414C115.212 11.6087 115.328 10.6717 115.561 9.83055C115.795 8.98103 116.136 8.25228 116.586 7.6443C117.036 7.03632 117.589 6.56575 118.247 6.23261C118.905 5.89947 119.655 5.7329 120.496 5.7329C121.287 5.7329 121.979 5.89947 122.57 6.23261C123.17 6.56575 123.678 7.04048 124.094 7.65679C124.519 8.26478 124.86 8.9852 125.118 9.81805C125.377 10.6426 125.564 11.5462 125.681 12.529V13.1037C125.564 14.0448 125.377 14.9193 125.118 15.7272C124.86 16.535 124.519 17.243 124.094 17.8509C123.678 18.4506 123.17 18.917 122.57 19.2501C121.97 19.5833 121.271 19.7499 120.471 19.7499C119.63 19.7499 118.88 19.5791 118.222 19.2377C117.573 18.8962 117.023 18.4173 116.573 17.801C116.132 17.1847 115.795 16.4601 115.561 15.6272C115.328 14.7944 115.212 13.8866 115.212 12.9038ZM118.81 12.6414V12.9038C118.81 13.4618 118.851 13.9823 118.934 14.4654C119.026 14.9484 119.172 15.3774 119.372 15.7521C119.58 16.1186 119.846 16.4059 120.171 16.6142C120.504 16.814 120.908 16.914 121.383 16.914C121.999 16.914 122.507 16.7766 122.907 16.5017C123.307 16.2185 123.611 15.8313 123.819 15.3399C124.036 14.8485 124.161 14.2822 124.194 13.6409V12.0043C124.169 11.4796 124.094 11.009 123.969 10.5926C123.853 10.1679 123.678 9.80556 123.444 9.50573C123.22 9.2059 122.936 8.9727 122.595 8.80613C122.262 8.63956 121.866 8.55628 121.408 8.55628C120.942 8.55628 120.542 8.66455 120.209 8.88109C119.876 9.0893 119.605 9.37664 119.397 9.7431C119.197 10.1096 119.047 10.5426 118.947 11.0424C118.855 11.5337 118.81 12.0668 118.81 12.6414ZM136.412 19.7499C135.363 19.7499 134.421 19.5833 133.589 19.2501C132.756 18.9087 132.048 18.4381 131.465 17.8385C130.89 17.2388 130.449 16.5434 130.141 15.7521C129.832 14.9526 129.678 14.1031 129.678 13.2036V12.7039C129.678 11.6795 129.824 10.7425 130.116 9.89301C130.407 9.0435 130.824 8.30642 131.365 7.68178C131.915 7.05714 132.581 6.57824 133.364 6.2451C134.147 5.90363 135.029 5.7329 136.012 5.7329C136.97 5.7329 137.819 5.89114 138.561 6.20762C139.302 6.52411 139.922 6.97385 140.422 7.55685C140.93 8.13985 141.313 8.83945 141.572 9.65565C141.83 10.4635 141.959 11.363 141.959 12.3541V13.8532H131.215V11.4546H138.423V11.1798C138.423 10.6801 138.332 10.2345 138.148 9.84304C137.974 9.44327 137.707 9.12678 137.349 8.89358C136.991 8.66038 136.533 8.54378 135.975 8.54378C135.5 8.54378 135.092 8.64789 134.75 8.8561C134.409 9.06432 134.13 9.35582 133.913 9.7306C133.705 10.1054 133.547 10.5468 133.439 11.0548C133.339 11.5546 133.289 12.1042 133.289 12.7039V13.2036C133.289 13.745 133.364 14.2447 133.514 14.7028C133.672 15.1608 133.893 15.5564 134.176 15.8896C134.467 16.2227 134.817 16.4809 135.225 16.6641C135.642 16.8474 136.112 16.939 136.637 16.939C137.286 16.939 137.89 16.814 138.448 16.5642C139.015 16.306 139.502 15.9187 139.91 15.4024L141.659 17.3013C141.376 17.7094 140.989 18.1008 140.497 18.4756C140.014 18.8504 139.431 19.1585 138.748 19.4001C138.065 19.6333 137.286 19.7499 136.412 19.7499ZM147.606 8.93106V19.5H144.008V5.98275H147.393L147.606 8.93106ZM151.678 5.8953L151.616 9.23089C151.441 9.2059 151.228 9.18508 150.979 9.16843C150.737 9.14344 150.516 9.13095 150.316 9.13095C149.808 9.13095 149.367 9.19758 148.992 9.33083C148.626 9.45576 148.318 9.64315 148.068 9.89301C147.826 10.1429 147.643 10.4469 147.518 10.805C147.401 11.1631 147.335 11.5712 147.318 12.0293L146.594 11.8044C146.594 10.9299 146.681 10.1262 146.856 9.3933C147.031 8.65206 147.285 8.00659 147.618 7.45691C147.96 6.90722 148.376 6.48247 148.867 6.18264C149.359 5.88281 149.921 5.7329 150.554 5.7329C150.754 5.7329 150.958 5.74955 151.166 5.78287C151.374 5.80785 151.545 5.84533 151.678 5.8953ZM170.517 13.466H174.253C174.178 14.6903 173.841 15.7771 173.241 16.7266C172.65 17.676 171.821 18.4173 170.755 18.9503C169.697 19.4833 168.423 19.7499 166.932 19.7499C165.766 19.7499 164.721 19.55 163.796 19.1502C162.872 18.7421 162.081 18.1591 161.423 17.4012C160.773 16.6433 160.277 15.7272 159.936 14.6528C159.595 13.5784 159.424 12.3749 159.424 11.0424V9.78057C159.424 8.44801 159.599 7.24453 159.948 6.17015C160.307 5.08743 160.815 4.16713 161.473 3.40923C162.139 2.65133 162.934 2.06833 163.859 1.66023C164.783 1.25213 165.816 1.04808 166.957 1.04808C168.473 1.04808 169.751 1.32293 170.792 1.87261C171.842 2.4223 172.654 3.18019 173.228 4.14631C173.811 5.11242 174.161 6.21179 174.278 7.44441H170.53C170.488 6.7115 170.343 6.09102 170.093 5.58298C169.843 5.06661 169.464 4.67933 168.956 4.42115C168.456 4.15463 167.79 4.02138 166.957 4.02138C166.332 4.02138 165.787 4.13798 165.32 4.37118C164.854 4.60438 164.463 4.95834 164.146 5.43307C163.83 5.9078 163.592 6.50745 163.434 7.23204C163.284 7.94829 163.209 8.78948 163.209 9.75559V11.0424C163.209 11.9835 163.28 12.8122 163.421 13.5284C163.563 14.2364 163.78 14.836 164.071 15.3274C164.371 15.8104 164.754 16.1769 165.22 16.4268C165.695 16.6683 166.266 16.7891 166.932 16.7891C167.715 16.7891 168.36 16.6641 168.868 16.4143C169.376 16.1644 169.764 15.7938 170.03 15.3024C170.305 14.811 170.467 14.1989 170.517 13.466ZM175.914 12.8788V12.6164C175.914 11.6253 176.056 10.7134 176.339 9.88052C176.622 9.03933 177.035 8.31058 177.576 7.69427C178.117 7.07796 178.783 6.59907 179.575 6.2576C180.366 5.9078 181.274 5.7329 182.298 5.7329C183.323 5.7329 184.235 5.9078 185.034 6.2576C185.834 6.59907 186.504 7.07796 187.045 7.69427C187.595 8.31058 188.012 9.03933 188.295 9.88052C188.578 10.7134 188.719 11.6253 188.719 12.6164V12.8788C188.719 13.8616 188.578 14.7735 188.295 15.6147C188.012 16.4476 187.595 17.1763 187.045 17.801C186.504 18.4173 185.838 18.8962 185.047 19.2377C184.255 19.5791 183.348 19.7499 182.323 19.7499C181.299 19.7499 180.387 19.5791 179.587 19.2377C178.796 18.8962 178.126 18.4173 177.576 17.801C177.035 17.1763 176.622 16.4476 176.339 15.6147C176.056 14.7735 175.914 13.8616 175.914 12.8788ZM179.512 12.6164V12.8788C179.512 13.4451 179.562 13.974 179.662 14.4654C179.762 14.9568 179.92 15.3899 180.137 15.7646C180.362 16.1311 180.653 16.4184 181.011 16.6266C181.37 16.8349 181.807 16.939 182.323 16.939C182.823 16.939 183.252 16.8349 183.61 16.6266C183.968 16.4184 184.255 16.1311 184.472 15.7646C184.688 15.3899 184.847 14.9568 184.947 14.4654C185.055 13.974 185.109 13.4451 185.109 12.8788V12.6164C185.109 12.0668 185.055 11.5504 184.947 11.0673C184.847 10.576 184.684 10.1429 184.459 9.76808C184.243 9.38497 183.956 9.08514 183.597 8.8686C183.239 8.65206 182.806 8.54378 182.298 8.54378C181.79 8.54378 181.357 8.65206 180.999 8.8686C180.649 9.08514 180.362 9.38497 180.137 9.76808C179.92 10.1429 179.762 10.576 179.662 11.0673C179.562 11.5504 179.512 12.0668 179.512 12.6164ZM194.454 8.8686V19.5H190.856V5.98275H194.229L194.454 8.8686ZM193.929 12.2666H192.955C192.955 11.2672 193.084 10.3677 193.342 9.5682C193.6 8.76033 193.962 8.07322 194.429 7.50688C194.895 6.93221 195.449 6.49496 196.09 6.19513C196.74 5.88697 197.464 5.7329 198.264 5.7329C198.897 5.7329 199.476 5.82451 200.001 6.00774C200.525 6.19097 200.975 6.48247 201.35 6.88224C201.733 7.28201 202.024 7.81087 202.224 8.46883C202.432 9.12678 202.537 9.93049 202.537 10.8799V19.5H198.914V10.8675C198.914 10.2678 198.83 9.8014 198.664 9.46825C198.497 9.13511 198.252 8.90191 197.927 8.76866C197.61 8.62707 197.219 8.55628 196.752 8.55628C196.269 8.55628 195.849 8.65206 195.491 8.84361C195.141 9.03517 194.849 9.30168 194.616 9.64315C194.391 9.9763 194.22 10.3677 194.104 10.8175C193.987 11.2672 193.929 11.7503 193.929 12.2666ZM211.894 5.98275V8.53129H204.023V5.98275H211.894ZM205.972 2.64717H209.57V15.4273C209.57 15.8188 209.62 16.1186 209.72 16.3268C209.828 16.535 209.986 16.6808 210.195 16.7641C210.403 16.839 210.665 16.8765 210.982 16.8765C211.207 16.8765 211.406 16.8682 211.581 16.8515C211.765 16.8265 211.919 16.8015 212.044 16.7766L212.056 19.425C211.748 19.525 211.415 19.6041 211.057 19.6624C210.699 19.7207 210.303 19.7499 209.87 19.7499C209.079 19.7499 208.387 19.6208 207.796 19.3626C207.213 19.0961 206.763 18.6713 206.447 18.0883C206.13 17.5053 205.972 16.7391 205.972 15.7896V2.64717ZM217.54 8.93106V19.5H213.943V5.98275H217.328L217.54 8.93106ZM221.613 5.8953L221.551 9.23089C221.376 9.2059 221.163 9.18508 220.914 9.16843C220.672 9.14344 220.451 9.13095 220.251 9.13095C219.743 9.13095 219.302 9.19758 218.927 9.33083C218.561 9.45576 218.253 9.64315 218.003 9.89301C217.761 10.1429 217.578 10.4469 217.453 10.805C217.336 11.1631 217.27 11.5712 217.253 12.0293L216.529 11.8044C216.529 10.9299 216.616 10.1262 216.791 9.3933C216.966 8.65206 217.22 8.00659 217.553 7.45691C217.894 6.90722 218.311 6.48247 218.802 6.18264C219.294 5.88281 219.856 5.7329 220.489 5.7329C220.689 5.7329 220.893 5.74955 221.101 5.78287C221.309 5.80785 221.48 5.84533 221.613 5.8953ZM222.363 12.8788V12.6164C222.363 11.6253 222.504 10.7134 222.787 9.88052C223.071 9.03933 223.483 8.31058 224.024 7.69427C224.566 7.07796 225.232 6.59907 226.023 6.2576C226.814 5.9078 227.722 5.7329 228.747 5.7329C229.771 5.7329 230.683 5.9078 231.482 6.2576C232.282 6.59907 232.952 7.07796 233.494 7.69427C234.043 8.31058 234.46 9.03933 234.743 9.88052C235.026 10.7134 235.168 11.6253 235.168 12.6164V12.8788C235.168 13.8616 235.026 14.7735 234.743 15.6147C234.46 16.4476 234.043 17.1763 233.494 17.801C232.952 18.4173 232.286 18.8962 231.495 19.2377C230.704 19.5791 229.796 19.7499 228.771 19.7499C227.747 19.7499 226.835 19.5791 226.036 19.2377C225.244 18.8962 224.574 18.4173 224.024 17.801C223.483 17.1763 223.071 16.4476 222.787 15.6147C222.504 14.7735 222.363 13.8616 222.363 12.8788ZM225.961 12.6164V12.8788C225.961 13.4451 226.011 13.974 226.111 14.4654C226.21 14.9568 226.369 15.3899 226.585 15.7646C226.81 16.1311 227.102 16.4184 227.46 16.6266C227.818 16.8349 228.255 16.939 228.771 16.939C229.271 16.939 229.7 16.8349 230.058 16.6266C230.416 16.4184 230.704 16.1311 230.92 15.7646C231.137 15.3899 231.295 14.9568 231.395 14.4654C231.503 13.974 231.557 13.4451 231.557 12.8788V12.6164C231.557 12.0668 231.503 11.5504 231.395 11.0673C231.295 10.576 231.133 10.1429 230.908 9.76808C230.691 9.38497 230.404 9.08514 230.046 8.8686C229.688 8.65206 229.255 8.54378 228.747 8.54378C228.238 8.54378 227.805 8.65206 227.447 8.8686C227.097 9.08514 226.81 9.38497 226.585 9.76808C226.369 10.1429 226.21 10.576 226.111 11.0673C226.011 11.5504 225.961 12.0668 225.961 12.6164ZM241.177 0.311006V19.5H237.566V0.311006H241.177Z" fill="#E1E1E6"/>
</svg>
